<!DOCTYPE svg PUBLIC "-//W3C//DTD SVG 1.1//EN" "http://www.w3.org/Graphics/SVG/1.1/DTD/svg11.dtd">
<!-- Uploaded to: SVG Repo, www.svgrepo.com, Transformed by: SVG Repo Mixer Tools -->
<svg fill="#ffffff" height="800px" width="800px" version="1.1" id="Layer_1" xmlns="http://www.w3.org/2000/svg" xmlns:xlink="http://www.w3.org/1999/xlink" viewBox="0 0 512.003 512.003" xml:space="preserve" stroke="#ffffff">
<g id="SVGRepo_bgCarrier" stroke-width="0"/>
<g id="SVGRepo_tracerCarrier" stroke-linecap="round" stroke-linejoin="round"/>
<g id="SVGRepo_iconCarrier"> <g> <g> <path d="M382.411,394.019c-0.127-0.038-12.698-4.258-13.822-23.709c-1.424-24.562-26.592-46.024-37.544-54.244 c-2.852-22.689-8.144-43.743-15.605-61.701c10.911,5.965,21.737,14.179,25.13,23.671c10.797,30.229,35.516,30.577,36.562,30.577 c4.876,0,8.828-3.952,8.828-8.828c0-4.875-3.951-8.828-8.828-8.828c-0.132,0-13.383-0.513-19.937-18.861 c-9.236-25.845-45.751-39.68-54.991-42.81c-2.872-4.247-5.886-8.054-9.02-11.427c0.793-3.092,1.199-6.276,1.199-9.52 c0-12.831-6.335-24.203-16.035-31.176c1.469-8.742,6.255-33.059,17.827-60.973c13.138-31.689,38.01-74.707,81.893-99.691 c4.237-2.412,5.716-7.801,3.304-12.039c-2.413-4.239-7.805-5.717-12.04-3.304c-38.301,21.806-69.306,59.408-89.663,108.743 c-10.788,26.144-15.922,48.919-18.064,60.471c-1.831-0.27-3.703-0.414-5.607-0.414s-3.776,0.145-5.607,0.414 c-2.142-11.553-7.276-34.328-18.064-60.471c-20.357-49.335-51.362-86.937-89.663-108.743c-4.239-2.413-9.626-0.933-12.04,3.304 c-2.413,4.237-0.933,9.627,3.304,12.039c43.883,24.984,68.756,68.002,81.894,99.691c11.573,27.912,16.358,52.23,17.827,60.973 c-9.7,6.973-16.036,18.345-16.036,31.177c0,3.244,0.406,6.428,1.199,9.52c-3.133,3.372-6.149,7.18-9.021,11.428 c-9.249,3.133-45.75,16.968-54.984,42.808c-6.553,18.348-19.804,18.861-19.937,18.861c-4.876,0-8.828,3.952-8.828,8.828 c0,4.875,3.951,8.828,8.828,8.828c1.048,0,25.766-0.347,36.562-30.577c3.392-9.49,14.215-17.704,25.124-23.668 c-7.461,17.958-12.752,39.013-15.604,61.701c-10.955,8.223-36.114,29.682-37.539,54.24c-1.125,19.45-13.695,23.671-13.822,23.709 c-4.679,1.372-7.359,6.277-5.986,10.956s6.276,7.359,10.955,5.986c1.005-0.294,24.627-7.585,26.48-39.631 c0.591-10.188,8.863-21.264,17.78-30.113c-0.213,4.806-0.326,9.655-0.326,14.54c0,14.06,0.911,27.832,2.634,41.049 c-19.186,26.517-19.17,47.86-17.36,58.428c3.795,22.204-5.579,28.671-5.677,28.722c-4.309,2.279-5.957,7.62-3.677,11.93 c1.583,2.993,4.645,4.703,7.812,4.703c1.391,0,2.802-0.33,4.118-1.025c0.858-0.454,20.942-11.522,14.827-47.308 c-1.709-9.971,0.953-20.103,4.768-28.683c3.409,14.639,7.926,28.199,13.493,40.152c14.502,31.131,34.591,48.277,56.562,48.277 c21.972,0,42.058-17.145,56.562-48.277c5.568-11.954,10.086-25.517,13.496-40.158c3.817,8.583,6.481,18.716,4.772,28.69 c-6.115,35.788,13.969,46.855,14.827,47.309c1.316,0.696,2.727,1.025,4.118,1.025c3.166,0,6.229-1.709,7.812-4.703 c2.28-4.31,0.632-9.652-3.677-11.93c-0.098-0.051-9.472-6.52-5.677-28.722c1.811-10.567,1.826-31.913-17.364-58.433 c1.723-13.217,2.633-26.986,2.633-41.044c0-4.886-0.113-9.736-0.326-14.545c8.92,8.85,17.194,19.927,17.785,30.118 c1.853,32.046,25.475,39.335,26.48,39.631c4.679,1.372,9.583-1.308,10.955-5.986S387.089,395.392,382.411,394.019z M256.001,187.613c10.178,0.001,18.647,7.381,20.383,17.067c-6.522-3.405-13.355-5.168-20.383-5.168s-13.863,1.763-20.384,5.168 C237.353,194.995,245.823,187.613,256.001,187.613z M275.177,225.094c-12.737-1.013-25.619-1.013-38.354,0 c6.227-5.174,12.73-7.925,19.177-7.925C262.449,217.169,268.952,219.918,275.177,225.094z M215.443,255.245 c1.746-3.748,3.576-7.247,5.477-10.486c23.007-3.701,47.143-3.702,70.162,0.001c1.9,3.239,3.73,6.739,5.477,10.486 c1.543,3.312,2.999,6.764,4.368,10.341c-14.721-2.827-29.768-4.267-44.919-4.267c-15.15,0-30.201,1.44-44.932,4.268 C212.444,262.01,213.9,258.558,215.443,255.245z M204.856,284.998c16.646-3.982,33.823-6.022,51.15-6.022 c17.331,0,34.505,2.039,51.137,6.022c1.595,5.979,2.98,12.192,4.147,18.603H200.709 C201.876,297.19,203.262,290.977,204.856,284.998z M197.759,324.449c0.494-1.003,0.796-2.087,0.886-3.194h114.716 c0.091,1.102,0.39,2.181,0.879,3.18c0.481,4.668,0.856,9.403,1.119,14.199c-19.233,5.39-39.169,8.127-59.365,8.127 c-20.188,0-40.12-2.738-59.354-8.127C196.904,333.843,197.278,329.113,197.759,324.449z M256.001,494.345 c-9.095,0-18.299-5.46-26.679-15.498c8.843,0.99,17.759,1.507,26.673,1.507c8.918,0,17.839-0.517,26.683-1.508 C274.299,488.884,265.095,494.345,256.001,494.345z M296.558,456.268c-0.466,0.999-0.939,1.975-1.417,2.939 c-25.701,4.613-52.568,4.615-78.282,0c-0.478-0.964-0.951-1.94-1.417-2.939c-2.813-6.039-5.325-12.559-7.552-19.442 c15.758,3.24,31.876,4.886,48.102,4.886c16.241,0,32.366-1.648,48.118-4.893C301.884,443.705,299.372,450.227,296.558,456.268z M312.936,397.844c-0.015,0.094-0.033,0.187-0.044,0.281c-0.955,6.649-2.134,13.122-3.532,19.376 c-17.353,4.334-35.276,6.554-53.368,6.554c-18.07,0-35.987-2.216-53.349-6.544c-1.394-6.235-2.571-12.687-3.523-19.315 c-0.02-0.179-0.051-0.355-0.081-0.533c-0.072-0.508-0.137-1.023-0.206-1.533c18.605,4.608,37.777,6.939,57.163,6.939 c19.393,0,38.567-2.331,57.173-6.939C313.092,396.702,313.016,397.276,312.936,397.844z M315.096,377.359 c-19.136,5.341-38.987,8.054-59.1,8.054c-20.106,0-39.953-2.714-59.089-8.054c-0.471-6.746-0.717-13.616-0.739-20.569 c19.452,5.057,39.522,7.625,59.829,7.625c20.313,0,40.388-2.568,59.84-7.625C315.813,363.743,315.567,370.614,315.096,377.359z"/> </g> </g> </g>
</svg>